<svg xmlns="http://www.w3.org/2000/svg" width="64" height="64"><g fill="#fff"><path d="M52.602 18.602c-.801-2.903-2.403-5.204-4.801-6.801-3-2.102-6.403-2.801-9.403-3.2C34.301 8 30.602 7.899 27 8.302c-3.3.398-5.8 1.097-8.102 2.097-4.5 2.102-7.097 5.403-8 9.903-.398 2.199-.699 4.199-.796 6-.403 4.398 0 8.199 1 11.8 1 3.5 2.699 6 5.296 7.598.704.403 1.5.7 2.301 1 .5.2.903.301 1.301.5.398.2.398.2.398.5V55c0 .5.5 1 1 1h.403c.3 0 .5-.102.699-.3.2-.2 4.8-4.598 6.5-6.4l.2-.3c.3-.3.3-.3.6-.3 2.302 0 4.5-.098 6.7-.302 2.7-.097 5.898-.398 8.898-1.699 2.704-1.097 4.704-2.898 5.903-5.398 1.199-2.5 2-5.301 2.3-8.403.598-5.296.2-10-1-14.296zm-.903 14.296c-.3 2.903-.898 5.403-2.097 7.704-1 2-2.602 3.398-4.903 4.398-2.699 1.102-5.597 1.398-8.199 1.5-2.2.102-4.398.2-6.7.2-1.198 0-1.6.5-2.1 1l-.2.198C26.398 49.102 23.898 51.5 22.398 53v-5.3c0-1.5-.898-2-1.5-2.4a11.409 11.409 0 00-1.5-.6c-.699-.302-1.5-.5-1.898-.802-2.2-1.398-3.602-3.5-4.5-6.398-1-3.3-1.3-7-.898-11.102.097-1.796.398-3.699.796-5.898.704-3.898 2.903-6.602 6.801-8.398 2.102-1 4.403-1.602 7.5-1.903A30.22 30.22 0 0131.5 9.9c2.102 0 4.2.203 6.5.5 2.898.402 5.898 1.101 8.5 2.902 2 1.398 3.3 3.3 4 5.699 1.3 4.2 1.7 8.7 1.2 13.898zm0 0"/><path d="M41.7 35.898c-1-.699-1.9-1.398-2.9-2.097-1.5-1.102-3.1-1.2-4.198.597-.102.102-.102.204-.204.301-.597.602-1.296.801-2 .403-2.796-1.204-5-3-6.296-5.801-.801-1.602-.602-2.5.898-3.5.102-.102.3-.2.398-.301.602-.602.801-1.3.403-2-.801-1.8-2-3.398-3.403-4.7-.5-.5-1.097-.698-1.796-.6C20.8 18.601 19 19.897 19 22.3c.102.302 0 .7.2 1 .6 1.5 1.1 3 1.8 4.302 3.602 6.699 9 11.296 15.898 14.296.801.403 1.704.403 2.5.102 1.102-.5 2.102-1.2 2.801-2.3.903-1.7 1-2.7-.5-3.802zM33.5 15c-1.3 0-2.5.2-3.7.602-.5.199-.8.699-.6 1.296.198.602.698.801 1.3.602 1-.3 2-.5 3-.5 5.2 0 9.5 4.3 9.5 9.5 0 1.102-.2 2.2-.5 3.2-.2.5.102 1.1.602 1.3.097 0 .199.102.296.102a.963.963 0 00.903-.704c.398-1.199.699-2.5.699-3.796C45 20.199 39.8 15 33.5 15zm0 0"/><path d="M39.398 29.5c.102 0 .204.102.301.102a.963.963 0 00.903-.704c.296-.796.398-1.597.398-2.398 0-4.102-3.398-7.5-7.5-7.5-.8 0-1.602.102-2.398.398-.5.204-.801.704-.602 1.301.2.602.7.801 1.3.602.598-.2 1.2-.301 1.802-.301 3 0 5.5 2.5 5.5 5.5 0 .602-.102 1.2-.301 1.7-.301.6 0 1.1.597 1.3zm0 0"/><path d="M35.602 28.2c.097 0 .199.1.296.1.403 0 .801-.3.903-.698.097-.403.199-.704.199-1.102 0-1.898-1.602-3.5-3.5-3.5-.398 0-.8.102-1.102.2-.5.198-.796.698-.597 1.3.199.5.699.8 1.3.602.2-.102.297-.102.5-.102.797 0 1.5.7 1.5 1.5 0 .2 0 .3-.101.5-.2.5 0 1.102.602 1.2zm0 0"/></g></svg>