<svg xmlns="http://www.w3.org/2000/svg" width="64" height="64"><g fill="#fff"><path d="M22.008 35.25L39.023 25 27.012 37.5l10.535 8.273c1.887.832 2.574-.898 2.574-.898l4.824-24.5s.082-.625.043-.75c-.343-1.168-2.226-.324-2.226-.324L15.207 30.188s-1.305.449-1.203 1.277c.105.832 1.168 1.21 1.168 1.21l6.836 2.575"/><path d="M45.95 19.344c-.231-.785-.86-1.27-1.727-1.332-.176-.012-1.16.027-1.825.367l-.003-.008-27.512 10.871c-.887.305-1.863 1.024-1.883 2.086-.004.086.004.172.016.262.171 1.398 1.652 1.969 1.804 2.02l6.38 2.402c.488 1.578 2.105 6.773 2.452 7.886.235.747.621 1.711 1.328 1.973.204.086.422.129.649.129a1.74 1.74 0 001.16-.445l3.906-3.89 6.235 4.894a.749.749 0 00.215.129c.515.23.976.312 1.367.312.41 0 .746-.09.996-.195 1.066-.438 1.496-1.446 1.543-1.559a1.29 1.29 0 00.05-.176l4.837-24.566c.109-.836.05-1.031.011-1.16zM23.194 35.699l9.871-5.945-6.773 7.055a.944.944 0 00-.23.441c-.004.012-1.004 4.43-1.004 4.43zm20.77-15.511l-4.8 24.37c-.06.098-.2.31-.415.399-.18.07-.41.055-.691-.055l-9.563-7.507L39.742 25.69a1 1 0 00.063-1.316 1.001 1.001 0 00-1.297-.23l-16.602 10-6.39-2.407a1.305 1.305 0 01-.48-.324c.109-.094.327-.219.538-.297L43.133 20.23c.015-.007.031-.015.047-.02.254-.112.59-.194.804-.206l-.02.183zm0 0"/><path d="M32 58C17.664 58 6 46.336 6 32S17.664 6 32 6s26 11.664 26 26-11.664 26-26 26zm0-50C18.766 8 8 18.766 8 32s10.766 24 24 24 24-10.766 24-24S45.234 8 32 8zm0 0"/></g></svg>